<svg id="Layer_1" data-name="Layer 1" xmlns="http://www.w3.org/2000/svg" viewBox="0 0 149.28 191.84"><defs><style>.cls-1{fill:#009fdf;}</style></defs><title>icon_only</title><path class="cls-1" d="M132,46.72V4.08H25.36V195.92H89.28V153.36h21.36v42.56h64V46.72H132ZM68,174.59H46.64V153.31H68v21.27Zm0-42.64H46.68V110.68H68v21.27Zm0-42.64H46.68V68H68V89.31Zm0-42.64H46.68V25.4H68V46.67ZM110.67,132H89.32V110.72h21.36V132Zm0-42.64H89.32V68.08h21.36V89.36Zm0-42.64H89.32V25.45h21.36V46.72Zm42.6,127.92H131.92V153.36h21.36v21.27Zm0-42.64H132V110.72h21.36V132Zm0-42.64H132V68.08h21.36V89.36Z" transform="translate(-25.36 -4.08)"/><polygon class="cls-1" points="113.7 0.61 113.7 36.12 149.28 36.12 113.7 0.61"/></svg>