<?xml version="1.0" encoding="UTF-8" standalone="no"?>
<svg width="38px" height="48px" viewBox="0 0 38 48" version="1.1" xmlns="http://www.w3.org/2000/svg" xmlns:xlink="http://www.w3.org/1999/xlink">
    <!-- Generator: Sketch 3.7 (28169) - http://www.bohemiancoding.com/sketch -->
    <title>Page 1</title>
    <desc>Created with Sketch.</desc>
    <defs>
        <polygon id="path-1" points="37.8 47.9997 37.8 0 0.0003 0 0.0003 47.9997 37.8 47.9997"></polygon>
    </defs>
    <g id="Page-1" stroke="none" stroke-width="1" fill="none" fill-rule="evenodd">
        <g id="Dashboard-expanded" transform="translate(-61.000000, -334.000000)">
            <g id="Take-Action" transform="translate(38.000000, 334.000000)">
                <g id="Page-1" transform="translate(23.000000, 0.000000)">
                    <g id="Group-3">
                        <mask id="mask-2" fill="white">
                            <use xlink:href="#path-1"></use>
                        </mask>
                        <g id="Clip-2"></g>
                        <path d="M3.0198,44.98095 L3.0198,13.43145 L24.6333,13.43145 C25.1898,13.43145 25.6398,12.9807 25.6398,12.42495 C25.6398,11.8692 25.1898,11.41845 24.6333,11.41845 L3.0198,11.41845 L3.0198,6.0297 L5.87955,6.0297 L5.87955,8.1102 C5.87955,8.66595 6.32955,9.1167 6.88605,9.1167 C7.4418,9.1167 7.89255,8.66595 7.89255,8.1102 L7.89255,6.0297 L10.68555,6.0297 L10.68555,8.1102 C10.68555,8.66595 11.13555,9.1167 11.69205,9.1167 C12.2478,9.1167 12.6978,8.66595 12.6978,8.1102 L12.6978,6.0297 L15.4908,6.0297 L15.4908,8.1102 C15.4908,8.66595 15.9423,9.1167 16.4973,9.1167 C17.05305,9.1167 17.5038,8.66595 17.5038,8.1102 L17.5038,6.0297 L20.2968,6.0297 L20.2968,8.1102 C20.2968,8.66595 20.74755,9.1167 21.3033,9.1167 C21.8583,9.1167 22.3098,8.66595 22.3098,8.1102 L22.3098,6.0297 L25.10205,6.0297 L25.10205,8.1102 C25.10205,8.66595 25.5528,9.1167 26.10855,9.1167 C26.6643,9.1167 27.11505,8.66595 27.11505,8.1102 L27.11505,6.0297 L29.9088,6.0297 L29.9088,8.1102 C29.9088,8.66595 30.3588,9.1167 30.91455,9.1167 C31.47105,9.1167 31.92105,8.66595 31.92105,8.1102 L31.92105,6.0297 L34.7808,6.0297 L34.7808,11.41845 L30.26805,11.41845 C29.71305,11.41845 29.26155,11.8692 29.26155,12.42495 C29.26155,12.9807 29.71305,13.43145 30.26805,13.43145 L34.7808,13.43145 L34.7808,44.98095 L3.0198,44.98095 Z M34.7808,3.01095 L31.92105,3.01095 L31.92105,1.00695 C31.92105,0.45045 31.47105,-0.0003 30.91455,-0.0003 C30.3588,-0.0003 29.9088,0.45045 29.9088,1.00695 L29.9088,3.01095 L27.11505,3.01095 L27.11505,1.00695 C27.11505,0.45045 26.6643,-0.0003 26.10855,-0.0003 C25.5528,-0.0003 25.10205,0.45045 25.10205,1.00695 L25.10205,3.01095 L22.3098,3.01095 L22.3098,1.00695 C22.3098,0.45045 21.8583,-0.0003 21.3033,-0.0003 C20.74755,-0.0003 20.2968,0.45045 20.2968,1.00695 L20.2968,3.01095 L17.5038,3.01095 L17.5038,1.00695 C17.5038,0.45045 17.05305,-0.0003 16.4973,-0.0003 C15.9423,-0.0003 15.4908,0.45045 15.4908,1.00695 L15.4908,3.01095 L12.6978,3.01095 L12.6978,1.00695 C12.6978,0.45045 12.2478,-0.0003 11.69205,-0.0003 C11.13555,-0.0003 10.68555,0.45045 10.68555,1.00695 L10.68555,3.01095 L7.89255,3.01095 L7.89255,1.00695 C7.89255,0.45045 7.4418,-0.0003 6.88605,-0.0003 C6.32955,-0.0003 5.87955,0.45045 5.87955,1.00695 L5.87955,3.01095 L3.0198,3.01095 C1.3518,3.01095 0.0003,4.3632 0.0003,6.0297 L0.0003,44.98095 C0.0003,46.64895 1.3518,47.9997 3.0198,47.9997 L34.7808,47.9997 C36.44805,47.9997 37.8003,46.64895 37.8003,44.98095 L37.8003,6.0297 C37.8003,4.3632 36.44805,3.01095 34.7808,3.01095 L34.7808,3.01095 Z" id="Fill-1" fill="#0096D7" mask="url(#mask-2)"></path>
                    </g>
                    <path d="M29.78025,20.08515 L17.52825,20.08515 C16.9725,20.08515 16.52175,20.53665 16.52175,21.09165 C16.52175,21.64815 16.9725,22.09815 17.52825,22.09815 L29.78025,22.09815 C30.336,22.09815 30.78675,21.64815 30.78675,21.09165 C30.78675,20.53665 30.336,20.08515 29.78025,20.08515" id="Fill-4" fill="#0096D7"></path>
                    <path d="M11.871075,20.08515 L8.019825,20.08515 C7.464075,20.08515 7.013325,20.53665 7.013325,21.09165 C7.013325,21.64815 7.464075,22.09815 8.019825,22.09815 L11.871075,22.09815 C12.426825,22.09815 12.877575,21.64815 12.877575,21.09165 C12.877575,20.53665 12.426825,20.08515 11.871075,20.08515" id="Fill-6" fill="#0096D7"></path>
                    <path d="M29.78025,25.371075 L17.52825,25.371075 C16.9725,25.371075 16.52175,25.821825 16.52175,26.377575 C16.52175,26.933325 16.9725,27.384075 17.52825,27.384075 L29.78025,27.384075 C30.336,27.384075 30.78675,26.933325 30.78675,26.377575 C30.78675,25.821825 30.336,25.371075 29.78025,25.371075" id="Fill-8" fill="#0096D7"></path>
                    <path d="M11.871075,25.371075 L8.019825,25.371075 C7.464075,25.371075 7.013325,25.821825 7.013325,26.377575 C7.013325,26.933325 7.464075,27.384075 8.019825,27.384075 L11.871075,27.384075 C12.426825,27.384075 12.877575,26.933325 12.877575,26.377575 C12.877575,25.821825 12.426825,25.371075 11.871075,25.371075" id="Fill-10" fill="#0096D7"></path>
                    <path d="M29.78025,30.901575 L17.52825,30.901575 C16.9725,30.901575 16.52175,31.352325 16.52175,31.908075 C16.52175,32.463825 16.9725,32.914575 17.52825,32.914575 L29.78025,32.914575 C30.336,32.914575 30.78675,32.463825 30.78675,31.908075 C30.78675,31.352325 30.336,30.901575 29.78025,30.901575" id="Fill-12" fill="#0096D7"></path>
                    <path d="M11.871075,30.901575 L8.019825,30.901575 C7.464075,30.901575 7.013325,31.352325 7.013325,31.908075 C7.013325,32.463825 7.464075,32.914575 8.019825,32.914575 L11.871075,32.914575 C12.426825,32.914575 12.877575,32.463825 12.877575,31.908075 C12.877575,31.352325 12.426825,30.901575 11.871075,30.901575" id="Fill-14" fill="#0096D7"></path>
                    <path d="M29.78025,36.75585 L17.52825,36.75585 C16.9725,36.75585 16.52175,37.2066 16.52175,37.76235 C16.52175,38.3181 16.9725,38.76885 17.52825,38.76885 L29.78025,38.76885 C30.336,38.76885 30.78675,38.3181 30.78675,37.76235 C30.78675,37.2066 30.336,36.75585 29.78025,36.75585" id="Fill-16" fill="#0096D7"></path>
                    <path d="M11.871075,36.75585 L8.019825,36.75585 C7.464075,36.75585 7.013325,37.2066 7.013325,37.76235 C7.013325,38.3181 7.464075,38.76885 8.019825,38.76885 L11.871075,38.76885 C12.426825,38.76885 12.877575,38.3181 12.877575,37.76235 C12.877575,37.2066 12.426825,36.75585 11.871075,36.75585" id="Fill-18" fill="#0096D7"></path>
                </g>
            </g>
        </g>
    </g>
</svg>