<?xml version="1.0" encoding="UTF-8" standalone="no"?>
<svg width="48px" height="48px" viewBox="0 0 48 48" version="1.1" xmlns="http://www.w3.org/2000/svg" xmlns:xlink="http://www.w3.org/1999/xlink">
    <!-- Generator: Sketch 3.7 (28169) - http://www.bohemiancoding.com/sketch -->
    <title>Page 1</title>
    <desc>Created with Sketch.</desc>
    <defs></defs>
    <g id="Page-1" stroke="none" stroke-width="1" fill="none" fill-rule="evenodd">
        <g id="Dashboard-expanded" transform="translate(-55.000000, -610.000000)" fill="#0096D7">
            <g id="Find-Help" transform="translate(44.000000, 610.000000)">
                <g id="Page-1" transform="translate(11.000000, 0.000000)">
                    <path d="M41.382375,41.2317 L36.264375,36.1137 C35.872875,35.7222 35.237625,35.7222 34.846125,36.1137 C34.453875,36.50595 34.453875,37.14045 34.846125,37.53195 L38.640375,41.3262 C36.876375,42.5877 34.159125,44.5347 34.111125,44.5827 C33.844125,44.8482 33.485625,44.9907 33.120375,44.9907 C32.864625,44.9907 32.606625,44.9217 32.373375,44.7747 C21.769875,38.0487 9.957375,26.2377 3.233625,15.63345 C2.877375,15.07095 2.971125,14.34795 3.425625,13.89495 C3.473625,13.8462 5.395875,11.1057 6.642375,9.3282 L7.816875,10.50195 C8.011875,10.69845 8.268375,10.7967 8.525625,10.7967 C8.782125,10.7967 9.038625,10.69845 9.235125,10.50195 C9.625875,10.1112 9.625875,9.47595 9.235125,9.08445 L6.724125,6.57345 L10.288125,3.00945 L20.666625,13.38645 L17.101125,16.95045 L11.666625,11.51595 C11.273625,11.12445 10.639875,11.12445 10.248375,11.51595 C9.856125,11.9082 9.856125,12.5427 10.248375,12.93495 L14.499375,17.18595 L11.707125,19.97745 C15.662625,25.0482 22.903125,32.2947 27.971625,36.25395 L30.769875,33.45645 L32.413125,35.0997 C32.609625,35.29545 32.866125,35.3937 33.121875,35.3937 C33.378375,35.3937 33.636375,35.29545 33.831375,35.0997 C34.223625,34.70895 34.223625,34.07295 33.831375,33.68145 L31.005375,30.85395 L34.569375,27.28845 L44.946375,37.66695 L41.382375,41.2317 Z M47.074875,35.5392 L36.697875,25.1607 C36.133875,24.5967 35.367375,24.27945 34.569375,24.27945 C33.772875,24.27945 33.006375,24.5967 32.442375,25.1607 L28.724625,28.87695 C28.160625,29.4417 27.844125,30.20745 27.844125,31.00545 C27.844125,31.33695 27.898125,31.6602 28.002375,31.96695 L27.771375,32.19945 C23.837625,28.83945 19.117875,24.11595 15.760875,20.1807 L15.988125,19.95345 C16.300125,20.0592 16.624875,20.11095 16.950375,20.11095 C17.719125,20.11095 18.489375,19.81695 19.077375,19.2297 L22.795125,15.5142 C23.359125,14.9502 23.675625,14.18445 23.675625,13.38645 C23.675625,12.58845 23.359125,11.8227 22.795125,11.25795 L12.416625,0.88095 C11.829375,0.2937 11.058375,-0.0003 10.288125,-0.0003 C9.519375,-0.0003 8.748375,0.2937 8.161125,0.88095 L4.444875,4.5972 C3.880875,5.1612 3.562875,5.9277 3.562875,6.7257 C3.562875,7.18695 3.670125,7.63695 3.867375,8.04345 C2.677125,9.7422 1.438875,11.50395 1.099125,11.97795 C-0.191625,13.44345 -0.368625,15.56745 0.690375,17.2422 C7.670625,28.2492 19.755375,40.3347 30.762375,47.31495 C31.471125,47.7642 32.285625,47.9997 33.120375,47.9997 C34.189875,47.9997 35.238375,47.60145 36.038625,46.8987 C36.485625,46.57095 38.242125,45.3117 39.934875,44.09895 C40.343625,44.29395 40.787625,44.39145 41.231625,44.39145 C42.000375,44.39145 42.771375,44.09745 43.358625,43.5102 L47.074875,39.7947 C47.638875,39.2307 47.956875,38.46495 47.956875,37.66695 C47.956875,36.8697 47.638875,36.1032 47.074875,35.5392 L47.074875,35.5392 Z" id="Fill-1"></path>
                </g>
            </g>
        </g>
    </g>
</svg>