<?xml version="1.0" encoding="UTF-8" standalone="no"?>
<svg width="45px" height="48px" viewBox="0 0 45 48" version="1.1" xmlns="http://www.w3.org/2000/svg" xmlns:xlink="http://www.w3.org/1999/xlink">
    <!-- Generator: Sketch 3.7 (28169) - http://www.bohemiancoding.com/sketch -->
    <title>Page 1</title>
    <desc>Created with Sketch.</desc>
    <defs></defs>
    <g id="Page-1" stroke="none" stroke-width="1" fill="none" fill-rule="evenodd">
        <g id="Dashboard-expanded" transform="translate(-216.000000, -334.000000)" fill="#0096D7">
            <g id="My-Case" transform="translate(207.000000, 334.000000)">
                <g id="Page-1" transform="translate(9.000000, 0.000000)">
                    <path d="M27.05625,33.92025 L41.958,33.92025 L41.958,22.7625 L27.05625,22.7625 L27.05625,33.92025 Z M41.958,45 L3.00075,45 L3.00075,17.451 L3.00075,11.6805 L41.958,11.6805 L41.958,20.7615 L27.05625,20.7615 C25.95225,20.7615 25.056,21.65775 25.056,22.7625 L25.056,33.92025 C25.056,35.02425 25.95225,35.91975 27.05625,35.91975 L41.958,35.91975 L41.958,45 Z M38.13075,3.0015 L38.13075,8.679 L3.00075,8.679 L3.00075,6.85725 L27.05625,6.85725 C27.609,6.85725 28.05675,6.40875 28.05675,5.85675 C28.05675,5.304 27.609,4.85625 27.05625,4.85625 L3.00075,4.85625 L3.00075,3.0015 L38.13075,3.0015 Z M41.958,8.679 L41.13225,8.679 L41.13225,3.0015 C41.13225,1.34475 39.78825,0 38.13075,0 L3.00075,0 C1.34325,0 0,1.34475 0,3.0015 L0,11.6805 L0,17.388 L0,45 C0,46.65675 1.34325,48 3.00075,48 L41.958,48 C43.61475,48 44.95875,46.65675 44.95875,45 L44.95875,11.6805 C44.95875,10.02375 43.61475,8.679 41.958,8.679 L41.958,8.679 Z" id="Fill-1"></path>
                    <path d="M31.7007,6.85695 L34.50795,6.85695 C35.05995,6.85695 35.50845,6.40845 35.50845,5.85645 C35.50845,5.30445 35.05995,4.85595 34.50795,4.85595 L31.7007,4.85595 C31.1487,4.85595 30.7002,5.30445 30.7002,5.85645 C30.7002,6.40845 31.1487,6.85695 31.7007,6.85695" id="Fill-3"></path>
                    <path d="M32.491725,30.637275 C33.759975,30.637275 34.787475,29.609025 34.787475,28.340025 C34.787475,27.071775 33.759975,26.043525 32.491725,26.043525 C31.223475,26.043525 30.195225,27.071775 30.195225,28.340025 C30.195225,29.609025 31.223475,30.637275 32.491725,30.637275" id="Fill-4"></path>
                </g>
            </g>
        </g>
    </g>
</svg>