<?xml version="1.0" encoding="UTF-8" standalone="no"?>
<svg width="47px" height="48px" viewBox="0 0 47 48" version="1.1" xmlns="http://www.w3.org/2000/svg" xmlns:xlink="http://www.w3.org/1999/xlink">
    <!-- Generator: Sketch 3.7 (28169) - http://www.bohemiancoding.com/sketch -->
    <title>Mag icon</title>
    <desc>Created with Sketch.</desc>
    <defs>
        <polygon id="path-1" points="46.5245091 0.726545455 0.000145454545 0.726545455 0.000145454545 47.2726545 46.5245091 47.2726545 46.5245091 0.726545455"></polygon>
    </defs>
    <g id="Page-1" stroke="none" stroke-width="1" fill="none" fill-rule="evenodd">
        <g id="Dashboard-expanded" transform="translate(-58.000000, -471.000000)">
            <g id="My-Building" transform="translate(35.000000, 471.000000)">
                <g id="Mag-icon" transform="translate(23.000000, 0.000000)">
                    <g id="Group-3" transform="translate(0.000000, 0.000945)">
                        <mask id="mask-2" fill="white">
                            <use xlink:href="#path-1"></use>
                        </mask>
                        <g id="Clip-2"></g>
                        <path d="M39.3288727,28.6421091 C36.5616,31.4093818 32.8823273,32.9330182 28.9688727,32.9330182 C25.0554182,32.9330182 21.3754182,31.4093818 18.6088727,28.6421091 C15.8416,25.8748364 14.3179636,22.1955636 14.3179636,18.2821091 C14.3179636,14.3686545 15.8416,10.6886545 18.6088727,7.92210909 C21.3754182,5.15483636 25.0554182,3.6312 28.9688727,3.6312 C32.8823273,3.6312 36.5616,5.15483636 39.3288727,7.92210909 C42.0961455,10.6886545 43.6190545,14.3686545 43.6190545,18.2821091 C43.6190545,22.1955636 42.0961455,25.8748364 39.3288727,28.6421091 L39.3288727,28.6421091 Z M5.67432727,43.7657455 L3.50632727,41.5977455 L15.5296,29.5752 C15.8554182,29.9599273 16.1943273,30.3352 16.5543273,30.6959273 C16.9216,31.0639273 17.3056,31.4108364 17.6990545,31.7402909 L5.67432727,43.7657455 Z M41.3826909,5.86756364 C38.0670545,2.55192727 33.6583273,0.726472727 28.9688727,0.726472727 C24.2794182,0.726472727 19.8706909,2.55192727 16.5543273,5.86756364 C13.2386909,9.18392727 11.4125091,13.5926545 11.4125091,18.2821091 C11.4125091,21.4581091 12.2525091,24.5053818 13.8248727,27.1715636 L0.4256,40.5708364 C0.1536,40.8435636 0.000145454545,41.2130182 0.000145454545,41.5977455 C0.000145454545,41.9832 0.1536,42.3526545 0.4256,42.6253818 L4.64669091,46.8464727 C4.91869091,47.1192 5.28814545,47.2726545 5.67432727,47.2726545 C6.05978182,47.2726545 6.42923636,47.1192 6.70123636,46.8464727 L20.1048727,33.4421091 C22.7659636,35.0028364 25.8023273,35.8377455 28.9688727,35.8377455 C33.6583273,35.8377455 38.0670545,34.0115636 41.3826909,30.6959273 C44.6990545,27.3802909 46.5245091,22.9715636 46.5245091,18.2821091 C46.5245091,13.5926545 44.6990545,9.18392727 41.3826909,5.86756364 L41.3826909,5.86756364 Z" id="Fill-1" fill="#0096D7" mask="url(#mask-2)"></path>
                    </g>
                    <path d="M40.4701818,20.0191273 C39.9494545,19.8962182 39.4272727,20.2184 39.3050909,20.7384 C38.852,22.6504 37.8752727,24.3980364 36.4796364,25.7929455 C34.4730909,27.8009455 31.8054545,28.9056727 28.9690909,28.9056727 C26.1312727,28.9056727 23.4636364,27.8009455 21.4570909,25.7929455 C21.1036364,25.4409455 20.7727273,25.0591273 20.4716364,24.6598545 C20.1509091,24.2322182 19.5443636,24.1456727 19.116,24.4678545 C18.6890909,24.7900364 18.6025455,25.3973091 18.9247273,25.8242182 C19.2796364,26.2962182 19.6709091,26.7464 20.0883636,27.1624 C22.46,29.5362182 25.6134545,30.8416727 28.9690909,30.8416727 C32.3232727,30.8416727 35.4774545,29.5362182 37.8490909,27.1631273 C39.4985455,25.5136727 40.6541818,23.4460364 41.1887273,21.1842182 C41.3123636,20.6642182 40.9901818,20.1420364 40.4701818,20.0191273" id="Fill-4" fill="#0096D7"></path>
                    <path d="M18.8452364,21.5074182 C17.6379636,17.7045091 18.6386909,13.5910545 21.4576,10.7714182 C23.4641455,8.7656 26.1310545,7.66087273 28.9688727,7.66087273 C31.8052364,7.66087273 34.4728727,8.7656 36.4794182,10.7721455 C37.8336,12.1263273 38.7972364,13.8172364 39.2648727,15.6637818 C39.3965091,16.1816 39.9216,16.4957818 40.4408727,16.3648727 C40.9594182,16.2332364 41.2736,15.7059636 41.1419636,15.1881455 C40.5885091,13.0041455 39.4503273,11.0026909 37.8488727,9.40196364 C35.4772364,7.03032727 32.3230545,5.72414545 28.9688727,5.72414545 C25.6139636,5.72414545 22.4605091,7.03032727 20.0881455,9.40196364 C16.7557818,12.7350545 15.5717818,17.5983273 16.9994182,22.0936 C17.1310545,22.5059636 17.5114182,22.7692364 17.9216,22.7692364 C18.0190545,22.7692364 18.1179636,22.7546909 18.2161455,22.7234182 C18.7252364,22.5612364 19.0074182,22.0172364 18.8452364,21.5074182" id="Fill-6" fill="#0096D7"></path>
                    <path d="M30.8941818,9.96261818 C30.3727273,9.84116364 29.8534545,10.1669818 29.7327273,10.6884364 C29.6127273,11.2098909 29.9385455,11.7298909 30.4585455,11.8498909 C31.6614545,12.1269818 32.7596364,12.7371636 33.6374545,13.6142545 C33.8265455,13.8026182 34.0745455,13.8971636 34.3225455,13.8971636 C34.5698182,13.8971636 34.8185455,13.8026182 35.0069091,13.6142545 C35.3850909,13.2353455 35.3850909,12.6222545 35.0069091,12.2440727 C33.8723636,11.1102545 32.4505455,10.3211636 30.8941818,9.96261818" id="Fill-8" fill="#0096D7"></path>
                    <path d="M35.5384,17.6259636 C35.5871273,18.1256 36.0082182,18.4994182 36.5013091,18.4994182 C36.5325818,18.4994182 36.5653091,18.4979636 36.5965818,18.4943273 C37.1296727,18.4419636 37.5187636,17.9685091 37.4656727,17.4361455 C37.4009455,16.7852364 37.2620364,16.1401455 37.0511273,15.5205091 C36.8787636,15.0143273 36.3296727,14.7437818 35.8227636,14.9161455 C35.3151273,15.0885091 35.0453091,15.6383273 35.2176727,16.1445091 C35.3805818,16.6245091 35.4889455,17.1226909 35.5384,17.6259636" id="Fill-10" fill="#0096D7"></path>
                </g>
            </g>
        </g>
    </g>
</svg>