<?xml version="1.0" encoding="UTF-8" standalone="no"?>
<svg width="48px" height="49px" viewBox="0 0 48 49" version="1.1" xmlns="http://www.w3.org/2000/svg" xmlns:xlink="http://www.w3.org/1999/xlink">
    <!-- Generator: Sketch 3.7 (28169) - http://www.bohemiancoding.com/sketch -->
    <title>KYR icon</title>
    <desc>Created with Sketch.</desc>
    <defs></defs>
    <g id="Page-1" stroke="none" stroke-width="1" fill="none" fill-rule="evenodd">
        <g id="Dashboard-expanded" transform="translate(-215.000000, -604.000000)" fill="#0096D7">
            <g id="KYR" transform="translate(161.000000, 604.000000)">
                <g id="KYR-icon" transform="translate(54.000000, 0.000000)">
                    <g id="Group-3" transform="translate(0.000000, 0.000675)">
                        <path d="M44.972925,33.412425 C44.972925,40.211925 39.461925,45.722925 32.663925,45.722925 L15.335925,45.722925 C8.537925,45.722925 3.026925,40.211925 3.026925,33.412425 L3.026925,16.085925 C3.026925,9.287925 8.537925,3.776925 15.335925,3.776925 L32.663925,3.776925 C39.461925,3.776925 44.972925,9.287925 44.972925,16.085925 L44.972925,33.412425 Z M32.663925,0.749175 L15.335925,0.749175 C6.879675,0.749175 -7.49999999e-05,7.629675 -7.49999999e-05,16.085925 L-7.49999999e-05,33.412425 C-7.49999999e-05,41.869425 6.879675,48.749175 15.335925,48.749175 L32.663925,48.749175 C41.120175,48.749175 47.999925,41.869425 47.999925,33.412425 L47.999925,16.085925 C47.999925,7.629675 41.120175,0.749175 32.663925,0.749175 L32.663925,0.749175 Z" id="Fill-1"></path>
                    </g>
                    <g id="Group-6" transform="translate(0.000000, 0.750675)">
                        <path d="M44.972925,32.6631 C44.972925,39.4626 39.461925,44.9736 32.663925,44.9736 L15.335925,44.9736 C8.537925,44.9736 3.026925,39.4626 3.026925,32.6631 L3.026925,15.3366 C3.026925,8.5386 8.537925,3.0276 15.335925,3.0276 L32.663925,3.0276 C39.461925,3.0276 44.972925,8.5386 44.972925,15.3366 L44.972925,32.6631 Z M32.663925,-0.00015 L15.335925,-0.00015 C6.879675,-0.00015 -7.49999999e-05,6.88035 -7.49999999e-05,15.3366 L-7.49999999e-05,32.6631 C-7.49999999e-05,41.1201 6.879675,47.99985 15.335925,47.99985 L32.663925,47.99985 C41.120175,47.99985 47.999925,41.1201 47.999925,32.6631 L47.999925,15.3366 C47.999925,6.88035 41.120175,-0.00015 32.663925,-0.00015 L32.663925,-0.00015 Z" id="Fill-4"></path>
                    </g>
                    <path d="M6.717075,26.726625 C7.273575,26.726625 7.725825,26.274375 7.725825,25.717125 L7.725825,15.983625 C7.725825,11.843625 11.093325,8.476875 15.232575,8.476875 L32.767575,8.476875 C34.530075,8.476875 36.243825,9.102375 37.594575,10.238625 C38.020575,10.596375 38.656575,10.543125 39.015825,10.117125 C39.375075,9.689625 39.320325,9.053625 38.893575,8.694375 C37.179825,7.252875 35.004825,6.459375 32.767575,6.459375 L15.232575,6.459375 C9.980325,6.459375 5.707575,10.731375 5.707575,15.983625 L5.707575,25.717125 C5.707575,26.274375 6.159075,26.726625 6.717075,26.726625" id="Fill-7"></path>
                    <path d="M40.274325,15.983475 L40.274325,33.518475 C40.274325,37.657725 36.906825,41.025975 32.767575,41.025975 L15.231825,41.025975 C11.093325,41.025975 7.725825,37.657725 7.725825,33.518475 C7.725825,32.961225 7.273575,32.509725 6.717075,32.509725 C6.159075,32.509725 5.707575,32.961225 5.707575,33.518475 C5.707575,38.770725 9.980325,43.043475 15.231825,43.043475 L32.767575,43.043475 C38.019825,43.043475 42.292575,38.770725 42.292575,33.518475 L42.292575,15.983475 C42.292575,15.425475 41.841075,14.973975 41.283075,14.973975 C40.726575,14.973975 40.274325,15.425475 40.274325,15.983475" id="Fill-9"></path>
                    <path d="M31.874175,20.939175 C31.874175,16.597425 28.342425,13.064175 23.999925,13.064175 C19.658175,13.064175 16.125675,16.597425 16.125675,20.939175 C16.125675,21.495675 16.577175,21.948675 17.134425,21.948675 C17.691675,21.948675 18.143925,21.495675 18.143925,20.939175 C18.143925,17.708925 20.770425,15.082425 23.999925,15.082425 C27.229425,15.082425 29.855925,17.708925 29.855925,20.939175 C29.855925,23.009925 28.529925,25.101675 26.771925,25.804425 C25.148925,26.453925 22.991175,27.605925 22.991175,30.111675 C22.991175,30.669675 23.442675,31.121175 23.999925,31.121175 C24.557175,31.121175 25.008675,30.669675 25.008675,30.111675 C25.008675,29.405175 25.307175,28.563675 27.521175,27.678675 C30.044175,26.669925 31.874175,23.834925 31.874175,20.939175" id="Fill-11"></path>
                    <path d="M24,33.49275 C22.947,33.49275 22.092,34.34775 22.092,35.4 C22.092,36.453 22.947,37.308 24,37.308 C25.05225,37.308 25.90725,36.453 25.90725,35.4 C25.90725,34.34775 25.05225,33.49275 24,33.49275" id="Fill-13"></path>
                </g>
            </g>
        </g>
    </g>
</svg>