<?xml version="1.0" encoding="UTF-8" standalone="no"?>
<svg width="41px" height="48px" viewBox="0 0 41 48" version="1.1" xmlns="http://www.w3.org/2000/svg" xmlns:xlink="http://www.w3.org/1999/xlink">
    <!-- Generator: Sketch 3.7 (28169) - http://www.bohemiancoding.com/sketch -->
    <title>Page 1</title>
    <desc>Created with Sketch.</desc>
    <defs>
        <polygon id="path-1" points="23.364 1.0658141e-14 0.291 1.0658141e-14 0.291 23.0727 23.364 23.0727 23.364 0"></polygon>
        <polygon id="path-3" points="0.0001125 24 40.1547375 24 40.1547375 0.536626206 0.0001125 0.536626206 0.0001125 24"></polygon>
    </defs>
    <g id="Page-1" stroke="none" stroke-width="1" fill="none" fill-rule="evenodd">
        <g id="Dashboard-expanded" transform="translate(-218.000000, -471.000000)">
            <g id="My-Profile" transform="translate(201.000000, 471.000000)">
                <g id="Page-1" transform="translate(17.000000, 0.000000)">
                    <g id="Group-3" transform="translate(8.250000, 0.000000)">
                        <mask id="mask-2" fill="white">
                            <use xlink:href="#path-1"></use>
                        </mask>
                        <g id="Clip-2"></g>
                        <path d="M11.8275,3.01245 C16.52775,3.01245 20.352,6.8367 20.352,11.53695 C20.352,16.2372 16.52775,20.0607 11.8275,20.0607 C7.12725,20.0607 3.303,16.2372 3.303,11.53695 C3.303,6.8367 7.12725,3.01245 11.8275,3.01245 M11.8275,23.0727 C18.18825,23.0727 23.364,17.89845 23.364,11.53695 C23.364,5.17545 18.18825,-0.0003 11.8275,-0.0003 C5.46675,-0.0003 0.291,5.17545 0.291,11.53695 C0.291,17.89845 5.46675,23.0727 11.8275,23.0727" id="Fill-1" fill="#0096D7" mask="url(#mask-2)"></path>
                    </g>
                    <g id="Group-6" transform="translate(0.000000, 24.000000)">
                        <mask id="mask-4" fill="white">
                            <use xlink:href="#path-3"></use>
                        </mask>
                        <g id="Clip-5"></g>
                        <path d="M21.081675,20.9553 L21.081675,14.3148 C21.081675,13.76055 20.631675,13.3113 20.077425,13.3113 C19.523175,13.3113 19.073175,13.76055 19.073175,14.3148 L19.073175,20.9553 C12.657675,20.6283 6.738675,17.19555 3.268425,11.7708 C4.722675,9.49455 6.605925,7.55805 8.797425,6.0558 C10.225425,8.52255 12.312675,11.50155 15.013425,13.67505 C15.376425,13.9668 15.892425,13.9698 16.259175,13.6848 C16.756425,13.2978 17.244675,12.85755 17.760675,12.3918 C18.520425,11.70705 19.301925,11.0028 20.077425,10.51305 C20.852925,11.0028 21.634425,11.70705 22.394175,12.3918 C22.910175,12.85755 23.398425,13.2978 23.895675,13.6848 C24.076425,13.8258 24.293925,13.8963 24.512175,13.8963 C24.734925,13.8963 24.957675,13.82205 25.141425,13.67505 C27.842925,11.50155 29.929425,8.52255 31.357425,6.0558 C33.548925,7.55805 35.432925,9.49455 36.886425,11.7708 C33.416175,17.19555 27.497175,20.6283 21.081675,20.9553 M18.077175,9.47505 C17.504925,9.9213 16.955175,10.41405 16.415925,10.9008 C16.153425,11.1378 15.897675,11.36805 15.650175,11.5833 C13.460175,9.63855 11.731425,7.1238 10.509675,5.00655 C11.284425,4.5843 12.087675,4.2078 12.918675,3.88905 C14.213175,6.11355 15.969675,8.00805 18.077175,9.47505 M27.236175,3.88905 C28.067175,4.2078 28.870425,4.5843 29.645175,5.00655 C28.423425,7.1238 26.694675,9.63855 24.504675,11.5833 C24.257175,11.36805 24.002175,11.1378 23.738925,10.9008 C23.199675,10.41405 22.649925,9.9213 22.077675,9.47505 C24.185175,8.00805 25.941675,6.11355 27.236175,3.88905 M39.951675,11.0163 C37.066425,6.0303 32.454675,2.3328 26.966175,0.6063 C26.255175,0.38205 25.484925,0.7143 25.159425,1.3848 C24.006675,3.7608 22.259925,5.75655 20.077425,7.20255 C17.894925,5.75655 16.148175,3.7608 14.996175,1.3848 C14.669925,0.7143 13.901175,0.38205 13.189425,0.6063 C7.700175,2.3328 3.088425,6.0303 0.203175,11.0163 C-0.067575,11.4828 -0.067575,12.0588 0.203175,12.5253 C4.298175,19.60305 11.913675,24.0003 20.077425,24.0003 C28.241175,24.0003 35.856675,19.60305 39.951675,12.5253 C40.222425,12.0588 40.222425,11.4828 39.951675,11.0163" id="Fill-4" fill="#0096D7" mask="url(#mask-4)"></path>
                    </g>
                </g>
            </g>
        </g>
    </g>
</svg>