<?xml version="1.0" encoding="UTF-8" standalone="no"?>
<svg width="54px" height="48px" viewBox="0 0 54 48" version="1.1" xmlns="http://www.w3.org/2000/svg" xmlns:xlink="http://www.w3.org/1999/xlink">
    <!-- Generator: Sketch 3.8.3 (29802) - http://www.bohemiancoding.com/sketch -->
    <title>Page 1</title>
    <desc>Created with Sketch.</desc>
    <defs>
        <polygon id="path-1" points="53.8947368 47.1575579 53.8947368 0.105263158 0.000168421053 0.105263158 0.000168421053 47.1575579"></polygon>
    </defs>
    <g id="Page-1" stroke="none" stroke-width="1" fill="none" fill-rule="evenodd">
        <g id="FINAL-5.17" transform="translate(-139.000000, -909.000000)">
            <g id="Page-1" transform="translate(139.000000, 909.000000)">
                <g id="Group-3" transform="translate(0.000000, 0.736842)">
                    <mask id="mask-2" fill="white">
                        <use xlink:href="#path-1"></use>
                    </mask>
                    <g id="Clip-2"></g>
                    <path d="M48.6250105,37.9432421 L40.8203789,37.9432421 C41.5799579,36.1478737 41.9993263,34.1756632 41.9993263,32.1066105 C41.9993263,23.8085053 35.2473263,17.0565053 26.9483789,17.0565053 C18.6485895,17.0565053 11.8965895,23.8085053 11.8965895,32.1066105 C11.8965895,34.1756632 12.3168,36.1478737 13.0746947,37.9432421 L5.27090526,37.9432421 C4.22922105,37.9432421 3.38122105,37.0960842 3.38122105,36.0552421 L3.38122105,14.5706105 L38.1829053,14.5706105 C38.8052211,14.5706105 39.3104842,14.0661895 39.3104842,13.4438737 C39.3104842,12.8215579 38.8052211,12.3162947 38.1829053,12.3162947 L3.38122105,12.3162947 L3.38122105,11.5390316 C3.38122105,10.4973474 4.22922105,9.65018947 5.27090526,9.65018947 L48.6250105,9.65018947 C49.6658526,9.65018947 50.5130105,10.4973474 50.5130105,11.5390316 L50.5130105,12.3162947 L44.5180632,12.3162947 C43.8957474,12.3162947 43.3904842,12.8215579 43.3904842,13.4438737 C43.3904842,14.0661895 43.8957474,14.5706105 44.5180632,14.5706105 L50.5130105,14.5706105 L50.5130105,36.0552421 C50.5130105,37.0960842 49.6658526,37.9432421 48.6250105,37.9432421 L48.6250105,37.9432421 Z M26.9483789,43.7765053 C20.5130105,43.7765053 15.2776421,38.5419789 15.2776421,32.1066105 C15.2776421,25.6729263 20.5130105,20.4384 26.9483789,20.4384 C33.3820632,20.4384 38.6174316,25.6729263 38.6174316,32.1066105 C38.6174316,38.5419789 33.3820632,43.7765053 26.9483789,43.7765053 L26.9483789,43.7765053 Z M32.5837474,6.26913684 L43.7803789,6.26913684 L43.7803789,3.48682105 L32.5837474,3.48682105 L32.5837474,6.26913684 Z M48.6250105,6.26913684 L47.1622737,6.26913684 L47.1622737,3.48682105 C47.1622737,1.61903158 45.6481684,0.104926316 43.7803789,0.104926316 L32.5837474,0.104926316 C30.7159579,0.104926316 29.2026947,1.61903158 29.2026947,3.48682105 L29.2026947,6.26913684 L5.27090526,6.26913684 C2.36395789,6.26913684 0.000168421053,8.63292632 0.000168421053,11.5390316 L0.000168421053,36.0552421 C0.000168421053,38.9613474 2.36395789,41.3251368 5.27090526,41.3251368 L15.0629053,41.3251368 C17.8182737,44.8712421 22.1189053,47.1575579 26.9483789,47.1575579 C31.7761684,47.1575579 36.0776421,44.8712421 38.8330105,41.3251368 L48.6250105,41.3251368 C51.5302737,41.3251368 53.8949053,38.9613474 53.8949053,36.0552421 L53.8949053,11.5390316 C53.8949053,8.63292632 51.5302737,6.26913684 48.6250105,6.26913684 L48.6250105,6.26913684 Z" id="Fill-1" fill="#0096D7" mask="url(#mask-2)"></path>
                </g>
                <path d="M34.9169684,29.5764211 C34.6803368,29.0004211 34.0218105,28.7267368 33.4466526,28.9616842 C32.8698105,29.1983158 32.5944421,29.856 32.8302316,30.432 C33.1443368,31.1974737 33.3034947,32.0092632 33.3034947,32.8437895 C33.3034947,36.3486316 30.4529684,39.2 26.9481263,39.2 C23.4432842,39.2 20.5910737,36.3486316 20.5910737,32.8437895 C20.5910737,29.3397895 23.4432842,26.4884211 26.9481263,26.4884211 C27.8062316,26.4884211 28.6382316,26.656 29.4213895,26.9869474 C29.9940211,27.2303158 30.6559158,26.9608421 30.8992842,26.3873684 C31.1409684,25.8130526 30.8723368,25.152 30.2988632,24.9103158 C29.2361263,24.4614737 28.1085474,24.2341053 26.9481263,24.2341053 C22.1994947,24.2341053 18.3384421,28.096 18.3384421,32.8437895 C18.3384421,37.5924211 22.1994947,41.4543158 26.9481263,41.4543158 C31.6950737,41.4543158 35.5578105,37.5924211 35.5578105,32.8437895 C35.5578105,31.7136842 35.3422316,30.6138947 34.9169684,29.5764211" id="Fill-4" fill="#0096D7"></path>
                <path d="M26.9482105,29.7565474 C25.2429474,29.7565474 23.8593684,31.1384421 23.8593684,32.8437053 C23.8593684,34.5489684 25.2429474,35.9317053 26.9482105,35.9317053 C28.6526316,35.9317053 30.0362105,34.5489684 30.0362105,32.8437053 C30.0362105,31.1384421 28.6526316,29.7565474 26.9482105,29.7565474" id="Fill-6" fill="#0096D7"></path>
            </g>
        </g>
    </g>
</svg>