<?xml version="1.0" encoding="utf-8"?>
<!-- Generator: Adobe Illustrator 18.0.0, SVG Export Plug-In . SVG Version: 6.00 Build 0)  -->
<!DOCTYPE svg PUBLIC "-//W3C//DTD SVG 1.1//EN" "http://www.w3.org/Graphics/SVG/1.1/DTD/svg11.dtd">
<svg version="1.1" id="Layer_1" xmlns="http://www.w3.org/2000/svg" xmlns:xlink="http://www.w3.org/1999/xlink" x="0px" y="0px"
	 viewBox="0 0 792 612" enable-background="new 0 0 792 612" xml:space="preserve">
<path d="M590.3,204.4L567.9,73.2l-459.4,80.7l67.3,383.7l45.6-7.7v33h466.4V204.4H590.3z M221.4,491.3l-14.7,2.8l-54.7-309.3
	l385.1-68l15.4,87.7H221.4V491.3z M649.9,525H259.2V242.3h390.7V525z"/>
<path d="M284.5,267.5v209.7l79.3-52.6l49.1,30.9l119.2-131.2l15.4,6.3l77.2,89.1V267.5L284.5,267.5L284.5,267.5z M360.2,358
	c-18.2,0-33.7-15.4-33.7-33.7c0-18.2,15.4-33.7,33.7-33.7c18.2,0,33.7,15.4,33.7,33.7C393.9,342.6,378.5,358,360.2,358z"/>
</svg>
