<?xml version="1.0" encoding="utf-8"?>
<!-- Generator: Adobe Illustrator 18.0.0, SVG Export Plug-In . SVG Version: 6.00 Build 0)  -->
<!DOCTYPE svg PUBLIC "-//W3C//DTD SVG 1.1//EN" "http://www.w3.org/Graphics/SVG/1.1/DTD/svg11.dtd">
<svg version="1.1" id="Layer_1" xmlns="http://www.w3.org/2000/svg" xmlns:xlink="http://www.w3.org/1999/xlink" x="0px" y="0px"
	 viewBox="0 0 792 612" enable-background="new 0 0 792 612" xml:space="preserve">
<g>
	<path d="M638.7,513.5L485.8,363.7c17.9-28.3,27.3-60.9,27.3-94.5c0-97.6-79.4-177-176.9-177s-176.9,79.4-176.9,177
		c0,97.6,79.4,176.9,176.9,176.9c37.3,0,72.9-11.6,103.3-33.5l152.1,149c6.3,6.2,14.7,9.6,23.6,9.6c9.1,0,17.7-3.6,24.1-10.1
		C652.2,547.9,652,526.5,638.7,513.5z M336.1,397.3c-70.6,0-128-57.4-128-128s57.4-128,128-128s128,57.4,128,128
		c0,33.2-12.7,64.7-35.7,88.7C404.1,383.3,371.3,397.3,336.1,397.3z"/>
</g>
</svg>
