<?xml version="1.0" encoding="utf-8"?>
<!-- Generator: Adobe Illustrator 18.0.0, SVG Export Plug-In . SVG Version: 6.00 Build 0)  -->
<!DOCTYPE svg PUBLIC "-//W3C//DTD SVG 1.1//EN" "http://www.w3.org/Graphics/SVG/1.1/DTD/svg11.dtd">
<svg version="1.1" id="Layer_1" xmlns="http://www.w3.org/2000/svg" xmlns:xlink="http://www.w3.org/1999/xlink" x="0px" y="0px"
	 viewBox="0 0 792 612" enable-background="new 0 0 792 612" xml:space="preserve">
<g>
	<rect x="233.9" y="97.8" fill="none" width="306" height="416.5"/>
	<path d="M199.9,63.7v12.9v21.1v416.5v34h340h34V97.8v-34H199.9z M539.9,514.2h-306V97.8h306V514.2z"/>
</g>
<g>
	<rect x="267.9" y="161.5" width="153" height="17"/>
	<rect x="267.9" y="229.5" width="153" height="17"/>
	<rect x="267.9" y="297.5" width="153" height="17"/>
	<rect x="267.9" y="365.5" width="153" height="17"/>
	<rect x="267.9" y="433.5" width="153" height="17"/>
	<polygon points="471.9,144.5 471.9,161.5 454.9,161.5 454.9,178.5 471.9,178.5 471.9,195.5 488.9,195.5 488.9,178.5 505.9,178.5 
		505.9,161.5 488.9,161.5 488.9,144.5 	"/>
	<rect x="454.9" y="229.5" width="51" height="17"/>
	<polygon points="454.9,314.5 471.9,314.5 471.9,331.5 488.9,331.5 488.9,314.5 505.9,314.5 505.9,297.5 488.9,297.5 488.9,280.5 
		471.9,280.5 471.9,297.5 454.9,297.5 	"/>
	<rect x="454.9" y="365.5" width="51" height="17"/>
	<polygon points="454.9,450.5 471.9,450.5 471.9,467.5 488.9,467.5 488.9,450.5 505.9,450.5 505.9,433.5 488.9,433.5 488.9,416.5 
		471.9,416.5 471.9,433.5 454.9,433.5 	"/>
</g>
</svg>
