<?xml version="1.0" encoding="UTF-8" standalone="no"?>
<svg width="46px" height="48px" viewBox="0 0 46 48" version="1.1" xmlns="http://www.w3.org/2000/svg" xmlns:xlink="http://www.w3.org/1999/xlink">
    <!-- Generator: Sketch 3.8.3 (29802) - http://www.bohemiancoding.com/sketch -->
    <title>Page 1</title>
    <desc>Created with Sketch.</desc>
    <defs>
        <polygon id="path-1" points="30.608325 0 0.024075 0 0.024075 18.26145 30.608325 18.26145 30.608325 1.0658141e-14"></polygon>
        <polygon id="path-3" points="18.495 19.333275 18.495 0.599775 0.4329 0.599775 0.4329 19.333275 18.495 19.333275"></polygon>
        <polygon id="path-5" points="0 48 45.495 48 45.495 0 0 0"></polygon>
    </defs>
    <g id="Page-1" stroke="none" stroke-width="1" fill="none" fill-rule="evenodd">
        <g id="FINAL-5.17" transform="translate(-140.000000, -1683.000000)">
            <g id="Page-1" transform="translate(140.000000, 1683.000000)">
                <g id="Group-3" transform="translate(7.500000, 0.000000)">
                    <mask id="mask-2" fill="white">
                        <use xlink:href="#path-1"></use>
                    </mask>
                    <g id="Clip-2"></g>
                    <path d="M15.246825,3.0132 C16.074075,3.0132 16.744575,3.6837 16.744575,4.5102 C16.744575,5.33745 16.074075,6.0072 15.246825,6.0072 C14.420325,6.0072 13.750575,5.33745 13.750575,4.5102 C13.750575,3.6837 14.420325,3.0132 15.246825,3.0132 M1.531575,18.26145 C2.363325,18.26145 3.038325,17.5872 3.038325,16.7547 L3.038325,15.5802 C3.561075,14.8317 7.647825,13.15695 15.317325,13.15695 C22.984575,13.15695 27.072075,14.8317 27.594825,15.5802 L27.594825,16.7547 C27.594825,17.5872 28.269075,18.26145 29.101575,18.26145 C29.933325,18.26145 30.608325,17.5872 30.608325,16.7547 L30.608325,15.48045 C30.608325,11.60595 22.477575,10.34445 16.754325,10.16745 L16.754325,8.75595 C18.501825,8.1342 19.758825,6.46845 19.758825,4.5102 C19.758825,2.02395 17.734575,-0.0003 15.246825,-0.0003 C12.760575,-0.0003 10.736325,2.02395 10.736325,4.5102 C10.736325,6.46845 11.993325,8.1342 13.740075,8.75595 L13.740075,10.17195 C8.024325,10.36545 0.024075,11.63745 0.024075,15.48045 L0.024075,16.7547 C0.024075,17.5872 0.699825,18.26145 1.531575,18.26145" id="Fill-1" fill="#0096D7" mask="url(#mask-2)"></path>
                </g>
                <path d="M9.0315,35.069775 C7.203,35.069775 5.63325,33.983025 4.92075,32.423025 L9.1695,32.423025 C9.7245,32.423025 10.17375,31.973025 10.17375,31.418025 C10.17375,30.863025 9.7245,30.413025 9.1695,30.413025 L3.144,30.413025 C3.09975,30.413025 3.05625,30.420525 3.0135,30.426525 L3.0135,27.404025 L15.04875,27.404025 L15.04875,30.428025 C15.0045,30.421275 14.9595,30.413025 14.913,30.413025 L12.5445,30.413025 C11.99025,30.413025 11.54025,30.863025 11.54025,31.418025 C11.54025,31.973025 11.99025,32.423025 12.5445,32.423025 L13.14225,32.423025 C12.429,33.983025 10.86,35.069775 9.0315,35.069775 L9.0315,35.069775 Z M9.0315,21.709275 L11.976,24.390525 L6.0855,24.390525 L9.0315,21.709275 Z M16.00275,33.406275 C17.19975,33.008025 18.06225,31.878525 18.06225,30.548025 L18.06225,27.404025 C18.06225,25.740525 16.713,24.390525 15.04875,24.390525 L14.9595,24.390525 L9.708,19.608525 C9.69375,19.595775 9.67875,19.586775 9.6645,19.576275 C9.6375,19.554525 9.609,19.532025 9.57975,19.513275 C9.55275,19.495275 9.5265,19.480275 9.49875,19.464525 C9.46875,19.449525 9.438,19.434525 9.4065,19.422525 C9.37725,19.410525 9.34725,19.400025 9.3165,19.391025 C9.285,19.382025 9.25425,19.373775 9.22275,19.367025 C9.19125,19.361775 9.15975,19.357275 9.1275,19.354275 C9.09525,19.350525 9.06375,19.349775 9.0315,19.349775 C8.99925,19.349775 8.96775,19.350525 8.93625,19.354275 C8.90325,19.357275 8.87175,19.361775 8.841,19.367025 C8.80875,19.373775 8.778,19.382025 8.7465,19.391025 C8.7165,19.400025 8.68575,19.410525 8.6565,19.422525 C8.625,19.434525 8.595,19.449525 8.56425,19.464525 C8.5365,19.480275 8.5095,19.495275 8.48325,19.513275 C8.45325,19.532025 8.4255,19.554525 8.39775,19.576275 C8.38425,19.586775 8.3685,19.595775 8.355,19.608525 L3.10275,24.390525 L3.0135,24.390525 C1.34925,24.390525 0,25.740525 0,27.404025 L0,30.548025 C0,31.878525 0.86325,33.008025 2.0595,33.406275 C3.18825,36.147525 5.88825,38.083275 9.0315,38.083275 C12.17475,38.083275 14.87475,36.147525 16.00275,33.406275 L16.00275,33.406275 Z" id="Fill-4" fill="#0096D7"></path>
                <g id="Group-8" transform="translate(27.000000, 18.750000)">
                    <mask id="mask-4" fill="white">
                        <use xlink:href="#path-3"></use>
                    </mask>
                    <g id="Clip-7"></g>
                    <path d="M9.46365,16.319775 C7.63665,16.319775 6.06615,15.233025 5.35365,13.673025 L9.60165,13.673025 C10.15665,13.673025 10.6059,13.223025 10.6059,12.668025 C10.6059,12.113025 10.15665,11.663025 9.60165,11.663025 L3.57615,11.663025 C3.53265,11.663025 3.4899,11.670525 3.4464,11.676525 L3.4464,8.654025 L15.48165,8.654025 L15.48165,11.678025 C15.4374,11.671275 15.39315,11.663025 15.34665,11.663025 L12.97815,11.663025 C12.42315,11.663025 11.9739,12.113025 11.9739,12.668025 C11.9739,13.223025 12.42315,13.673025 12.97815,13.673025 L13.57515,13.673025 C12.8619,15.233025 11.29215,16.319775 9.46365,16.319775 L9.46365,16.319775 Z M9.60165,2.959275 L12.5469,5.640525 L6.65715,5.640525 L9.60165,2.959275 Z M15.5334,5.643525 L10.27815,0.858525 C10.2639,0.845775 10.2489,0.836775 10.23465,0.826275 C10.20765,0.804525 10.1799,0.782025 10.15065,0.763275 C10.12365,0.745275 10.09665,0.729525 10.06815,0.714525 C10.03815,0.698775 10.0089,0.684525 9.97815,0.672525 C9.9474,0.660525 9.9174,0.649275 9.88515,0.641025 C9.8544,0.632025 9.8244,0.623775 9.7929,0.617025 C9.76065,0.611775 9.7299,0.608025 9.6969,0.604275 C9.6654,0.600525 9.6339,0.599775 9.60165,0.599775 C9.5694,0.599775 9.5379,0.600525 9.5064,0.604275 C9.47415,0.608025 9.4419,0.611775 9.40965,0.617025 C9.3789,0.623775 9.34815,0.632025 9.31815,0.641025 C9.28665,0.649275 9.2559,0.660525 9.22515,0.672525 C9.1944,0.684525 9.16515,0.698775 9.1359,0.714525 C9.10665,0.729525 9.07965,0.745275 9.05265,0.763275 C9.02265,0.782025 8.99565,0.804525 8.96865,0.826275 C8.95365,0.836775 8.9394,0.845775 8.92515,0.858525 L3.6729,5.640525 L3.4464,5.640525 C1.78215,5.640525 0.4329,6.990525 0.4329,8.654025 L0.4329,11.798025 C0.4329,13.127775 1.2954,14.257275 2.4924,14.656275 C3.6204,17.397525 6.3204,19.333275 9.46365,19.333275 C12.6069,19.333275 15.3069,17.397525 16.43565,14.656275 C17.6319,14.258025 18.49515,13.128525 18.49515,11.798025 L18.49515,8.654025 C18.49515,7.007025 17.17365,5.671275 15.5334,5.643525 L15.5334,5.643525 Z" id="Fill-6" fill="#0096D7" mask="url(#mask-4)"></path>
                </g>
                <mask id="mask-6" fill="white">
                    <use xlink:href="#path-5"></use>
                </mask>
                <g id="Clip-10"></g>
                <path d="M17.031,44.9865 L28.60125,44.9865 L28.60125,43.116 L17.031,43.116 L17.031,44.9865 Z M28.60125,40.10325 L24.25425,40.10325 L24.25425,16.1175 C24.25425,15.28575 23.57925,14.61075 22.74675,14.61075 C21.915,14.61075 21.24,15.28575 21.24,16.1175 L21.24,40.10325 L17.031,40.10325 C15.3675,40.10325 14.01825,41.4525 14.01825,43.116 L14.01825,44.9865 C14.01825,46.65 15.3675,48 17.031,48 L28.60125,48 C30.2655,48 31.61475,46.65 31.61475,44.9865 L31.61475,43.116 C31.61475,41.4525 30.2655,40.10325 28.60125,40.10325 L28.60125,40.10325 Z" id="Fill-9" fill="#0096D7" mask="url(#mask-6)"></path>
            </g>
        </g>
    </g>
</svg>