<?xml version="1.0" encoding="utf-8"?>
<!-- Generator: Adobe Illustrator 18.0.0, SVG Export Plug-In . SVG Version: 6.00 Build 0)  -->
<!DOCTYPE svg PUBLIC "-//W3C//DTD SVG 1.1//EN" "http://www.w3.org/Graphics/SVG/1.1/DTD/svg11.dtd">
<svg version="1.1" id="Layer_1" xmlns="http://www.w3.org/2000/svg" xmlns:xlink="http://www.w3.org/1999/xlink" x="0px" y="0px"
	 viewBox="0 0 792 612" enable-background="new 0 0 792 612" xml:space="preserve">
<path d="M371.6,309l-33.1-88.2l-0.2-0.4l-0.1,0c-0.8-1.7-2.6-2.8-4.4-2.8h-47.5v-12.6l-0.1-1.2h-15v13.8h-47.5c-1.8,0-3.5,1-4.3,2.6
	L186,309.3c-0.2,0.6-0.2,1.2-0.1,2.3c0.1,0.5,0.2,0.9,0.5,1.5l0.3,0.6c0.4,0.5,0.8,0.9,1,1c0.6,0.7,14.4,16.7,36.1,16.7
	c21.3,0,35.5-16,35.9-16.5c0.4-0.3,0.8-0.7,1.2-1.2l0.3-0.3v-0.1c0.3-0.6,0.5-1.1,0.6-2c0.1-0.6,0-1.3-0.1-1.9l0-0.1v0L231,227.5
	h40.3v112.1h-27.1v15h68.5v-15h-26.5l0.1-112.1h40.3l-30.3,81.1l-0.3,0.7c-0.2,0.5-0.2,1.1-0.1,2.3c0.1,0.6,0.3,1.1,0.6,1.7l0.2,0.4
	c0.3,0.4,0.7,0.8,1,1c0.6,0.7,14.8,16.7,36.1,16.7c21.7,0,35.5-16,35.8-16.5c0.5-0.3,0.9-0.7,1.1-1.1l0.3-0.5
	c0.3-0.6,0.5-1.2,0.6-1.7l0.1-0.5C372,310.4,371.9,309.8,371.6,309z M359.8,305.7h-51.8l25.9-69L359.8,305.7z M223.8,236.7l25.9,69
	h-51.7L223.8,236.7z"/>
<path d="M507.7,152.4h-20l-36,80l-36-80h-19.6c-1.8,0-3.4,0.1-4.8,0.3H247.3c-27.2-0.1-27.2,38.8,0,38.8h137.9l0,347h133.4l0-323.8
	h13.7v119.1c0,27.2,35.4,27.2,35.3,0v-122C567.7,181.8,542.8,152.4,507.7,152.4z"/>
<circle cx="451.6" cy="166.7" r="13.6"/>
<path d="M426,137.2L426,137.2L426,137.2c6.6,4,40,17.8,77.4-17.3c15-15.3,22.2-38.5,22.2-38.5s-16,7.2-28.5,2.4
	c-8.4-3.3-16.8-13.4-18.4-15.4c-3.9-4.4-8.7-8.1-14.4-10.7c-22-10-48,0-58,22.2C396.5,101.6,405.4,126.6,426,137.2z"/>
</svg>
