<svg xmlns="http://www.w3.org/2000/svg" xmlns:xlink="http://www.w3.org/1999/xlink" version="1.1" id="Layer_1" x="0px" y="0px" width="577.101px" height="109.9px" viewBox="107.3 251 577.101 109.9" enable-background="new 107.3 251 577.101 109.9" xml:space="preserve" preserveAspectRatio="xMinYMax meet" class="logosvg"><g><path fill="#FFFFFF" d="M537.6 284.1H551.7v7h0.2c0.5-1 1.1-2 2-3c0.899-1 1.899-1.9 3-2.6c1.199-0.8 2.5-1.4 4-1.9 s3.1-0.7 4.899-0.7c3.7 0 6.7 0.6 9 1.9c2.3 1.2 4.1 2.9 5.4 5.1c1.3 2.2 2.1 4.8 2.6 7.7c0.5 3 0.7 6.2 0.7 9.6V335.6h-14.7 V310.4c0-1.5 0-3-0.1-4.601c-0.101-1.6-0.4-3.1-0.9-4.4c-0.5-1.3-1.2-2.4-2.3-3.3c-1-0.8-2.5-1.3-4.4-1.3 c-1.899 0-3.399 0.4-4.6 1.1c-1.2 0.7-2.1 1.7-2.7 3c-0.6 1.2-1 2.6-1.2 4.2c-0.199 1.6-0.3 3.2-0.3 4.9v25.6h-14.7V284.1z"/><path fill="#FFFFFF" d="M618.8 343.9c-1 2.8-1.899 5.199-2.8 7.3c-0.9 2.1-2.1 3.899-3.5 5.3s-3.2 2.5-5.4 3.3 c-2.199 0.7-5 1.101-8.5 1.101c-3.8 0-7.5-0.601-11-1.9l2-13c2.2 1.1 4.5 1.6 6.9 1.6c1.6 0 3-0.199 4-0.6s1.9-1 2.6-1.7 c0.7-0.7 1.301-1.6 1.7-2.7c0.4-1.1 0.9-2.3 1.5-3.699l1.101-3L586.5 284h15.9l12.3 34h0.2l10.5-34h15.1L618.8 343.9z"/><path fill="#FFFFFF" d="M674.7 300.7c-0.7-1.1-1.7-2.1-3-2.8c-1.3-0.7-2.7-1.1-4.2-1.1c-3.7 0-6.6 1.2-8.7 3.6 c-2.1 2.4-3.1 5.5-3.1 9.4c0 3.9 1 7 3.1 9.4c2.101 2.4 5 3.6 8.7 3.6c1.6 0 3-0.399 4.2-1.2c1.2-0.8 2.2-1.699 3-2.8l9.7 11 c-2.301 2.5-5 4.3-8.101 5.3c-3.1 1-6.1 1.5-8.899 1.5c-3.7 0-7.101-0.6-10.4-1.899c-3.2-1.3-6.1-3.101-8.4-5.5 c-2.399-2.4-4.3-5.2-5.6-8.5c-1.4-3.3-2.1-7-2.1-11.101c0-4.1 0.699-7.8 2.1-11.1s3.3-6.2 5.6-8.5c2.4-2.4 5.2-4.2 8.4-5.5 s6.7-1.9 10.4-1.9c2.8 0 5.8 0.5 8.9 1.5c3.101 1 5.8 2.8 8.1 5.3L674.7 300.7z"/><path fill="#FFFFFF" d="M229.3 310.5c0 3.5-0.3 6.8-0.8 10.1c-0.6 3.2-1.6 6.101-3.2 8.601c-1.6 2.5-3.8 4.5-6.7 6 s-6.7 2.3-11.4 2.3c-5.5 0-10.1-1.4-13.9-4.2c-3.8-2.8-6.3-7.2-7.4-13.2l14-3.699c0.2 1.8 1 3.4 2.3 4.7 c1.3 1.3 2.9 1.9 4.6 1.9c1.8 0 3.1-0.5 4.1-1.4c1-1 1.7-2.1 2.2-3.5c0.5-1.399 0.7-2.899 0.8-4.6s0.1-3.2 0.1-4.6V260.8h15.3 V310.5L229.3 310.5z"/><path fill="#FFFFFF" d="M284.1 335.6H270v-7h-0.2c-0.5 1-1.2 2-2 3c-0.8 1-1.8 1.9-3 2.601c-1.2 0.8-2.5 1.399-4 1.9 s-3.1 0.7-4.9 0.7c-3.7 0-6.8-0.6-9.1-1.899c-2.3-1.2-4.1-2.9-5.4-5.101c-1.3-2.2-2.1-4.8-2.6-7.7c-0.4-3-0.6-6.199-0.6-9.6v-28.4 h14.7v25.2c0 1.5 0 3 0.1 4.601c0.1 1.6 0.4 3.1 0.9 4.399s1.2 2.4 2.3 3.3c1 0.8 2.5 1.3 4.4 1.301s3.4-0.4 4.6-1.101 c1.2-0.7 2.1-1.7 2.7-3c0.6-1.2 1-2.6 1.2-4.2c0.2-1.6 0.3-3.199 0.3-4.899v-25.6h14.7V335.6z"/><path fill="#FFFFFF" d="M319.2 299.3c-2.2-2.9-5-4.3-8.5-4.3c-1.2 0-2.5 0.3-3.6 1s-1.8 1.7-1.8 3.3c0 1.3 0.6 2.2 1.8 2.8 c1.2 0.6 2.7 1.1 4.6 1.6c1.9 0.5 3.9 1 6 1.5c2.1 0.5 4.1 1.4 6 2.5c1.9 1.1 3.4 2.7 4.6 4.6c1.2 1.9 1.8 4.5 1.8 7.8 c0 3.301-0.7 6.101-2 8.2c-1.3 2.2-3.1 3.9-5.2 5.2s-4.5 2.2-7.1 2.8c-2.6 0.5-5.2 0.8-7.8 0.8c-3.3 0-6.7-0.5-10.1-1.5 s-6.3-2.8-8.6-5.5l8.9-10.699c1.4 1.8 2.9 3.2 4.6 4.199c1.7 1 3.6 1.4 5.8 1.4c1.7 0 3.2-0.3 4.6-0.8c1.4-0.5 2.1-1.5 2.1-2.9 c0-1.3-0.6-2.3-1.8-3s-2.7-1.2-4.6-1.7s-3.9-1-6-1.5s-4.1-1.3-6-2.399c-1.9-1.101-3.4-2.601-4.6-4.5c-1.2-1.9-1.8-4.5-1.8-7.8 c0-3 0.6-5.6 1.7-7.8c1.1-2.2 2.7-4 4.5-5.4c1.9-1.4 4-2.5 6.4-3.1c2.4-0.7 4.9-1 7.4-1c3.1 0 6.3 0.5 9.5 1.5s5.9 2.8 8.2 5.3 L319.2 299.3z"/><path fill="#FFFFFF" d="M370 296.8h-13V314c0 1.4 0.1 2.7 0.2 3.9c0.1 1.2 0.4 2.2 0.9 3c0.5 0.8 1.2 1.5 2.1 2 c0.9 0.5 2.2 0.7 3.8 0.699c0.8 0 1.8-0.1 3.1-0.3c1.3-0.2 2.2-0.6 2.9-1.2v13.2c-1.6 0.601-3.3 1.101-5.1 1.3 c-1.8 0.2-3.5 0.301-5.2 0.301c-2.5 0-4.8-0.301-6.9-0.801c-2.1-0.6-3.9-1.5-5.5-2.699c-1.6-1.2-2.8-2.801-3.7-4.801 s-1.3-4.399-1.3-7.199v-24.5h-9.4v-12.7h9.4V269H357v15.2h13V296.8z"/><path fill="#FFFFFF" d="M379.6 260.6h46.6v15.2h-31.3V291h29v15.2h-29v29.2h-15.3V260.6L379.6 260.6z"/><path fill="#FFFFFF" d="M433 267.9c0-2.5 0.8-4.7 2.5-6.5c1.7-1.8 3.7-2.7 6-2.7c2.4 0 4.4 0.9 6 2.7c1.7 1.8 2.5 4 2.5 6.5 s-0.8 4.7-2.5 6.5c-1.7 1.8-3.7 2.7-6 2.7c-2.4 0-4.4-0.9-6-2.7C433.8 272.6 433 270.5 433 267.9z M434.2 284.1h14.7v51.5h-14.7 V284.1z"/><path fill="#FFFFFF" d="M471 308.1L455.1 284.2h17.4l8.4 14l8.199-14h16.4L490 308.1l18.4 27.5H491L480.6 318.4L469.4 335.6h-17.2 L471 308.1z"/><g><path fill="#FFFFFF" d="M155.4 270.2V251h-48.1v86.6h28.8V318.4h9.6V337.6h28.9v-67.3h-19.2V270.2z M126.5 327.9h-9.6V318.3h9.6 V327.9z M126.5 308.7h-9.6v-9.6h9.6V308.7z M126.5 289.5h-9.6v-9.6h9.6V289.5z M126.5 270.2h-9.6v-9.6h9.6V270.2z M145.8 308.7 h-9.6v-9.6h9.6V308.7z M145.8 289.5h-9.6v-9.6h9.6V289.5z M145.8 270.2h-9.6v-9.6h9.6V270.2z M165 328h-9.6v-9.6h9.6V328z M165 308.7h-9.6v-9.6h9.6V308.7z M165 289.5h-9.6v-9.6h9.6V289.5z"/></g><polygon fill="#FFFFFF" points="158.6,251.3 158.6,267.3 174.6,267.3"/><path fill="#FFFFFF" d="M512.6 328.3c0-2.5 0.801-4.7 2.5-6.5c1.7-1.8 3.7-2.7 6-2.7c2.301 0 4.4 0.9 6 2.7c1.7 1.8 2.5 4 2.5 6.5 s-0.8 4.7-2.5 6.5c-1.699 1.8-3.699 2.7-6 2.7c-2.3 0-4.399-0.9-6-2.7C513.4 333 512.6 330.8 512.6 328.3z"/></g></svg>
